<svg width="385" height="349" viewBox="0 0 385 349" fill="none" xmlns="http://www.w3.org/2000/svg">
<path d="M148.879 3.53483C143.445 5.43627 135.295 9.51079 130.676 12.2271C113.832 22.8209 14.9422 110.559 27.1677 104.04C29.3411 102.681 36.133 98.607 42.1099 94.5325C48.3584 90.4579 54.8787 86.655 57.0521 86.1118C58.9538 85.5685 69.2775 78.7776 79.8729 71.1719C90.4683 63.2945 109.214 51.6142 121.711 45.3666C141 35.5877 145.075 34.5012 149.694 37.2175C156.214 41.292 162.191 38.5757 172.243 26.6238C180.936 16.5733 181.208 9.51079 173.33 4.0781C165.994 -1.08296 162.191 -1.08296 148.879 3.53483Z" fill="black"/>
<path d="M287.977 1.63318C271.948 6.79424 266.243 15.4865 266.243 34.2293C266.243 50.2558 236.63 99.9649 223.046 107.027C207.289 114.905 197.78 135.277 207.832 139.352C210.006 140.167 217.613 138.809 224.676 136.636C246.682 129.845 273.035 122.239 273.578 123.054C273.85 123.325 266.786 135.006 257.549 149.131C248.584 163.256 230.11 193.136 216.798 215.138C203.214 237.14 185.012 265.39 176.318 277.614C167.624 289.837 160.289 302.604 160.289 306.136C160.289 309.667 161.104 312.112 162.462 311.568C169.526 308.037 178.491 304.234 182.567 302.876C185.012 302.333 192.347 293.912 198.595 284.405C219.514 253.438 229.838 242.573 249.671 232.251C269.231 221.929 277.11 220.299 277.11 225.732C277.11 227.633 275.208 239.585 273.035 252.352C270.861 265.119 269.503 278.7 270.59 283.047C272.763 293.097 288.52 300.975 310.798 303.148C325.468 304.506 330.087 303.691 343.127 297.715C360.786 289.566 378.717 272.181 383.335 258.6C385.78 250.45 385.509 247.462 381.434 238.499C378.445 232.794 374.642 227.905 372.74 227.905C370.838 227.905 366.22 226.003 362.416 223.559C358.884 221.114 355.081 219.756 353.994 220.571C353.179 221.657 355.624 229.806 359.428 238.77C367.306 256.426 366.491 263.217 356.439 272.181C345.029 282.775 309.711 283.318 299.659 273.268C292.324 265.934 292.324 245.018 299.931 218.941C308.353 190.962 308.624 185.53 302.376 182.27C295.584 178.739 290.965 180.912 278.468 192.592C266.786 203.729 239.075 221.114 239.075 217.311C239.075 212.693 274.121 157.28 298.301 123.869C311.884 104.854 323.295 88.8279 323.295 88.013C323.295 87.4697 320.306 84.7534 316.775 82.5803C310.526 78.5058 309.168 78.7774 291.509 87.4697C277.11 94.8038 248.041 105.669 242.607 105.669C235.543 105.669 281.185 44.5514 291.509 40.2053C299.659 36.674 309.711 25.537 309.711 19.8327C309.711 16.0298 296.671 -0.268279 293.954 0.00335596C292.867 0.00335596 290.15 0.818274 287.977 1.63318Z" fill="black"/>
<path d="M133.665 71.4433C120.624 85.5683 116.821 92.6308 104.324 125.499C99.1618 139.08 93.4566 151.847 91.8266 153.749C90.1965 155.922 85.8497 163.799 82.3179 171.405C78.7861 179.011 75.2543 184.715 74.4393 183.9C73.6243 183.085 74.9827 174.936 77.1561 165.972C79.6012 157.008 81.5029 143.97 81.5029 137.179C81.5029 126.314 82.8613 123.054 91.0116 114.633C96.1734 109.201 100.52 103.225 100.52 101.323C100.52 95.3472 89.9249 91.001 82.8613 94.2606C75.2543 97.7919 65.2023 118.164 65.2023 130.116C65.2023 135.277 63.8439 152.934 62.2139 169.775L58.9538 200.47L38.8497 208.076C14.6705 217.311 0 228.448 0 237.412C0 240.943 1.08671 244.475 2.44509 245.561C4.07514 246.376 16.3006 242.573 30.1561 237.412C43.7399 231.979 55.422 228.177 56.237 228.991C57.3237 230.078 54.0636 239.585 33.6879 295.814C24.7225 320.532 25.2659 353.672 34.5029 347.967C44.2832 341.72 54.6069 312.383 64.9306 260.501C70.6358 232.794 74.1676 220.299 77.6994 217.854C85.0347 212.693 85.578 215.681 79.0578 226.003C71.7225 238.227 71.7225 245.561 80.1445 253.71C92.3699 266.205 112.746 259.686 118.994 241.487C122.798 230.893 117.364 225.189 102.965 225.189C90.1965 225.189 89.1098 220.842 99.9769 211.064C108.671 203.186 111.659 201.828 137.197 195.309C158.387 189.876 160.289 190.691 160.289 206.174C160.017 223.287 155.399 264.576 152.139 276.527C148.064 291.739 137.197 302.061 127.145 300.703C118.723 299.345 119 302.5 120.5 312C122.5 319 121.789 317.315 122.5 320.261L123.613 325.693L132.306 320.261C137.197 317.273 144.803 309.939 149.422 303.691C157.572 292.011 168.439 262.402 168.439 250.994C168.439 247.734 170.341 239.585 172.786 233.066C175.231 226.547 176.861 214.052 176.861 205.088C176.59 192.864 177.948 186.073 183.11 176.294C190.445 162.441 189.63 158.91 179.035 156.465C171.971 154.564 171.699 153.749 169.798 130.116C168.711 116.806 168.711 97.2486 169.798 86.9265C171.428 69.5419 171.156 67.9121 165.451 63.8376C154.584 56.2318 145.89 58.4049 133.665 71.4433ZM152.682 108.386C153.497 116.535 154.312 132.289 154.584 143.155L154.855 162.984L143.445 167.874C118.994 178.196 120.081 178.467 117.908 159.996C116.549 146.414 115.191 143.698 111.116 143.698C99.9769 143.698 107.855 126.042 128.503 104.311C144.803 87.4698 150.237 88.2847 152.682 108.386Z" fill="black"/>
</svg>
