<svg width="327" height="369" viewBox="0 0 327 369" fill="none" xmlns="http://www.w3.org/2000/svg">
<path d="M102.681 1.31143C97.519 3.21288 92.086 15.4364 89.912 29.2898C89.097 36.0807 87.467 43.9581 86.652 46.9461L85.022 52.3787L91.271 46.9461L97.247 41.5134L95.617 64.6023C94.531 77.3691 92.629 97.4701 90.999 109.422C89.64 121.374 88.554 146.908 88.554 166.737C88.554 232.201 76.872 258.278 24.981 309.888C-1.643 335.965 -8.43501 347.102 11.669 331.619C17.375 327.001 31.23 318.309 42.369 311.79C83.12 288.158 102.953 261.537 111.918 219.434C115.178 203.408 115.993 184.665 115.178 129.795C114.635 71.1215 115.178 57.2682 119.525 38.2537C123.6 19.2393 123.872 14.8932 120.612 8.37394C117.08 1.0398 110.016 -1.94818 102.681 1.31143Z" fill="black"/>
<path d="M216.51 18.1528C209.99 24.6721 207.28 41.5134 210.81 53.737C213.8 63.7875 214.61 108.336 211.89 118.114C210.26 123.819 204.02 126.807 187.44 130.61C182.83 131.425 182.01 130.61 183.1 124.634C184.46 115.126 174.68 102.631 165.98 102.631C157.83 102.631 141.53 116.485 131.479 132.239C124.958 142.833 123.872 147.179 123.872 165.379C123.872 191.999 128.49 226.497 133.652 236.275C136.37 241.437 140.99 244.696 148.59 246.598C154.84 248.227 160.28 249.042 161.09 248.227C161.91 247.412 160.55 238.992 158.1 229.213C152.13 205.309 152.4 189.011 158.92 183.035C162.99 179.232 177.94 174.071 202.66 167.552C206.19 166.465 206.73 178.689 206.73 264.254C206.73 318.037 207.82 363.672 208.91 365.302C213.52 372.636 218.96 368.562 223.03 354.708C228.74 335.422 236.35 265.612 239.33 203.136C242.05 149.352 240.42 152.884 264.6 145.006C290.95 136.042 296.11 136.042 299.92 144.735C304.54 154.785 303.99 167.552 298.02 186.295C292.04 205.852 283.07 219.434 276.01 219.434C273.02 219.434 265.69 221.336 259.71 223.78C249.39 227.855 248.84 228.67 250.47 238.177C251.29 243.61 250.74 251.215 249.11 255.29C246.67 261.809 246.94 262.896 251.02 262.896C258.08 262.896 268.4 255.018 291.5 232.744C314.32 210.47 320.57 199.605 324.64 173.256C334.15 115.941 316.22 95.2971 269.49 109.422C262.15 111.595 252.37 113.497 248.03 113.497H239.88L241.51 86.8764C242.59 72.4798 244.5 56.4533 245.85 51.5639C248.03 44.5014 247.48 40.1552 243.95 32.5495C234.99 12.4485 226.57 8.10236 216.51 18.1528Z" fill="black"/>
<path d="M33.675 85.5184C31.502 88.2347 27.1551 95.0256 23.8951 100.458C18.4611 110.237 18.19 113.497 19.005 177.331C19.82 250.944 20.6351 254.747 35.5771 250.944C47.2591 247.956 54.322 228.67 53.507 201.778C52.964 189.826 52.692 178.146 52.964 175.973C53.236 173.8 54.0511 154.785 54.8661 133.869C56.4961 97.7419 56.224 95.5688 50.519 88.2347C43.727 79.814 39.38 78.9991 33.675 85.5184Z" fill="black"/>
</svg>
