<svg width="1192" height="369" viewBox="0 0 1192 369" fill="none" xmlns="http://www.w3.org/2000/svg">
<g clip-path="url(#clip0)">
<path d="M967.681 1.31143C962.519 3.21288 957.086 15.4364 954.912 29.2898C954.097 36.0807 952.467 43.9581 951.652 46.9461L950.022 52.3787L956.271 46.9461L962.247 41.5134L960.617 64.6023C959.531 77.3691 957.629 97.4701 955.999 109.422C954.64 121.374 953.554 146.908 953.554 166.737C953.554 232.201 941.872 258.278 889.981 309.888C863.357 335.965 856.565 347.102 876.669 331.619C882.375 327.001 896.23 318.309 907.369 311.79C948.12 288.158 967.953 261.537 976.918 219.434C980.178 203.408 980.993 184.665 980.178 129.795C979.635 71.1215 980.178 57.2682 984.525 38.2537C988.6 19.2393 988.872 14.8932 985.612 8.37394C982.08 1.0398 975.016 -1.94818 967.681 1.31143Z" fill="black"/>
<path d="M1081.51 18.1528C1074.99 24.6721 1072.28 41.5134 1075.81 53.737C1078.8 63.7875 1079.61 108.336 1076.89 118.114C1075.26 123.819 1069.02 126.807 1052.44 130.61C1047.83 131.425 1047.01 130.61 1048.1 124.634C1049.46 115.126 1039.68 102.631 1030.98 102.631C1022.83 102.631 1006.53 116.485 996.479 132.239C989.958 142.833 988.872 147.179 988.872 165.379C988.872 191.999 993.49 226.497 998.652 236.275C1001.37 241.437 1005.99 244.696 1013.59 246.598C1019.84 248.227 1025.28 249.042 1026.09 248.227C1026.91 247.412 1025.55 238.992 1023.1 229.213C1017.13 205.309 1017.4 189.011 1023.92 183.035C1027.99 179.232 1042.94 174.071 1067.66 167.552C1071.19 166.465 1071.73 178.689 1071.73 264.254C1071.73 318.037 1072.82 363.672 1073.91 365.302C1078.52 372.636 1083.96 368.562 1088.03 354.708C1093.74 335.422 1101.35 265.612 1104.33 203.136C1107.05 149.352 1105.42 152.884 1129.6 145.006C1155.95 136.042 1161.11 136.042 1164.92 144.735C1169.54 154.785 1168.99 167.552 1163.02 186.295C1157.04 205.852 1148.07 219.434 1141.01 219.434C1138.02 219.434 1130.69 221.336 1124.71 223.78C1114.39 227.855 1113.84 228.67 1115.47 238.177C1116.29 243.61 1115.74 251.215 1114.11 255.29C1111.67 261.809 1111.94 262.896 1116.02 262.896C1123.08 262.896 1133.4 255.018 1156.5 232.744C1179.32 210.47 1185.57 199.605 1189.64 173.256C1199.15 115.941 1181.22 95.2971 1134.49 109.422C1127.15 111.595 1117.37 113.497 1113.03 113.497H1104.88L1106.51 86.8764C1107.59 72.4798 1109.5 56.4533 1110.85 51.5639C1113.03 44.5014 1112.48 40.1552 1108.95 32.5495C1099.99 12.4485 1091.57 8.10236 1081.51 18.1528Z" fill="black"/>
<path d="M898.675 85.5184C896.502 88.2347 892.155 95.0256 888.895 100.458C883.461 110.237 883.19 113.497 884.005 177.331C884.82 250.944 885.635 254.747 900.577 250.944C912.259 247.956 919.322 228.67 918.507 201.778C917.964 189.826 917.692 178.146 917.964 175.973C918.236 173.8 919.051 154.785 919.866 133.869C921.496 97.7419 921.224 95.5688 915.519 88.2347C908.727 79.814 904.38 78.9991 898.675 85.5184Z" fill="black"/>
<path d="M148.879 3.53483C143.445 5.43627 135.295 9.51079 130.676 12.2271C113.832 22.8209 14.9422 110.559 27.1677 104.04C29.3411 102.681 36.133 98.607 42.1099 94.5325C48.3584 90.4579 54.8787 86.655 57.0521 86.1118C58.9538 85.5685 69.2775 78.7776 79.8729 71.1719C90.4683 63.2945 109.214 51.6142 121.711 45.3666C141 35.5877 145.075 34.5012 149.694 37.2175C156.214 41.292 162.191 38.5757 172.243 26.6238C180.936 16.5733 181.208 9.51079 173.33 4.0781C165.994 -1.08296 162.191 -1.08296 148.879 3.53483Z" fill="black"/>
<path d="M287.977 1.63318C271.948 6.79424 266.243 15.4865 266.243 34.2293C266.243 50.2558 236.63 99.9649 223.046 107.027C207.289 114.905 197.78 135.277 207.832 139.352C210.006 140.167 217.613 138.809 224.676 136.636C246.682 129.845 273.035 122.239 273.578 123.054C273.85 123.325 266.786 135.006 257.549 149.131C248.584 163.256 230.11 193.136 216.798 215.138C203.214 237.14 185.012 265.39 176.318 277.614C167.624 289.837 160.289 302.604 160.289 306.136C160.289 309.667 161.104 312.112 162.462 311.568C169.526 308.037 178.491 304.234 182.567 302.876C185.012 302.333 192.347 293.912 198.595 284.405C219.514 253.438 229.838 242.573 249.671 232.251C269.231 221.929 277.11 220.299 277.11 225.732C277.11 227.633 275.208 239.585 273.035 252.352C270.861 265.119 269.503 278.7 270.59 283.047C272.763 293.097 288.52 300.975 310.798 303.148C325.468 304.506 330.087 303.691 343.127 297.715C360.786 289.566 378.717 272.181 383.335 258.6C385.78 250.45 385.509 247.462 381.434 238.499C378.445 232.794 374.642 227.905 372.74 227.905C370.838 227.905 366.22 226.003 362.416 223.559C358.884 221.114 355.081 219.756 353.994 220.571C353.179 221.657 355.624 229.806 359.428 238.77C367.306 256.426 366.491 263.217 356.439 272.181C345.029 282.775 309.711 283.318 299.659 273.268C292.324 265.934 292.324 245.018 299.931 218.941C308.353 190.962 308.624 185.53 302.376 182.27C295.584 178.739 290.965 180.912 278.468 192.592C266.786 203.729 239.075 221.114 239.075 217.311C239.075 212.693 274.121 157.28 298.301 123.869C311.884 104.854 323.295 88.8279 323.295 88.013C323.295 87.4697 320.306 84.7534 316.775 82.5803C310.526 78.5058 309.168 78.7774 291.509 87.4697C277.11 94.8038 248.041 105.669 242.607 105.669C235.543 105.669 281.185 44.5514 291.509 40.2053C299.659 36.674 309.711 25.537 309.711 19.8327C309.711 16.0298 296.671 -0.268278 293.954 0.00335693C292.867 0.00335693 290.15 0.818275 287.977 1.63318Z" fill="black"/>
<path d="M133.665 71.4433C120.624 85.5683 116.821 92.6308 104.324 125.499C99.1618 139.08 93.4566 151.847 91.8266 153.749C90.1965 155.922 85.8497 163.799 82.3179 171.405C78.7861 179.011 75.2543 184.715 74.4393 183.9C73.6243 183.085 74.9827 174.936 77.1561 165.972C79.6012 157.008 81.5029 143.97 81.5029 137.179C81.5029 126.314 82.8613 123.054 91.0116 114.633C96.1734 109.201 100.52 103.225 100.52 101.323C100.52 95.3472 89.9249 91.001 82.8613 94.2606C75.2543 97.7919 65.2023 118.164 65.2023 130.116C65.2023 135.277 63.8439 152.934 62.2139 169.775L58.9538 200.47L38.8497 208.076C14.6705 217.311 0 228.448 0 237.412C0 240.943 1.08671 244.475 2.44509 245.561C4.07514 246.376 16.3006 242.573 30.1561 237.412C43.7399 231.979 55.422 228.177 56.237 228.991C57.3237 230.078 54.0636 239.585 33.6879 295.814C24.7225 320.532 25.2659 353.672 34.5029 347.967C44.2832 341.72 54.6069 312.383 64.9306 260.501C70.6358 232.794 74.1676 220.299 77.6994 217.854C85.0347 212.693 85.578 215.681 79.0578 226.003C71.7225 238.227 71.7225 245.561 80.1445 253.71C92.3699 266.205 112.746 259.686 118.994 241.487C122.798 230.893 117.364 225.189 102.965 225.189C90.1965 225.189 89.1098 220.842 99.9769 211.064C108.671 203.186 111.659 201.828 137.197 195.309C158.387 189.876 160.289 190.691 160.289 206.174C160.017 223.287 155.399 264.576 152.139 276.527C148.064 291.739 137.197 302.061 127.145 300.703C118.723 299.345 119 302.5 120.5 312C122.5 319 121.789 317.315 122.5 320.261L123.613 325.693L132.306 320.261C137.197 317.273 144.803 309.939 149.422 303.691C157.572 292.011 168.439 262.402 168.439 250.994C168.439 247.734 170.341 239.585 172.786 233.066C175.231 226.547 176.861 214.052 176.861 205.088C176.59 192.864 177.948 186.073 183.11 176.294C190.445 162.441 189.63 158.91 179.035 156.465C171.971 154.564 171.699 153.749 169.798 130.116C168.711 116.806 168.711 97.2486 169.798 86.9265C171.428 69.5419 171.156 67.9121 165.451 63.8376C154.584 56.2318 145.89 58.4049 133.665 71.4433ZM152.682 108.386C153.497 116.535 154.312 132.289 154.584 143.155L154.855 162.984L143.445 167.874C118.994 178.196 120.081 178.467 117.908 159.996C116.549 146.414 115.191 143.698 111.116 143.698C99.9769 143.698 107.855 126.042 128.503 104.311C144.803 87.4698 150.237 88.2847 152.682 108.386Z" fill="black"/>
<path d="M315.04 198.144C315.04 181.536 329.776 173.232 359.248 173.232V168.192C359.248 159.84 358.048 154.56 355.648 152.352C353.344 150.048 349.696 148.896 344.704 148.896L327.856 163.296C325.552 161.856 323.584 159.84 321.952 157.248C320.416 154.56 319.6 151.728 319.504 148.752C323.536 146.544 327.952 144.864 332.752 143.712C337.552 142.464 342.304 141.84 347.008 141.84C366.688 141.84 376.528 150.096 376.528 166.608V206.64H387.76V211.392C385.552 213.504 383.104 215.136 380.416 216.288C377.728 217.536 375.088 218.16 372.496 218.16C366.832 218.16 362.656 215.712 359.968 210.816C353.536 215.712 346.288 218.16 338.224 218.16C331.888 218.16 326.416 216.48 321.808 213.12C317.296 209.76 315.04 204.768 315.04 198.144ZM333.184 197.568C333.184 201.12 334.336 203.76 336.64 205.488C339.04 207.216 342.064 208.08 345.712 208.08C350.992 208.08 355.504 206.448 359.248 203.184V180.576C350.608 180.576 344.08 182.16 339.664 185.328C335.344 188.4 333.184 192.48 333.184 197.568Z" fill="black"/>
<path d="M389.557 216V209.808L401.797 206.928V155.664H389.557V149.472L412.597 144H419.077V150.912C426.373 144.864 434.101 141.84 442.261 141.84C449.749 141.84 455.653 143.952 459.973 148.176C464.293 152.4 466.453 157.824 466.453 164.448V206.928L472.573 208.368L478.693 209.808V216H439.957V209.808L449.317 206.928V167.04C449.317 157.248 445.141 152.352 436.789 152.352C431.125 152.352 425.221 154.56 419.077 158.976V206.928L428.437 209.808V216H389.557Z" fill="black"/>
<path d="M471.532 182.592C471.532 169.632 475.516 159.6 483.484 152.496C491.452 145.392 501.1 141.84 512.428 141.84C516.46 141.84 519.964 142.272 522.94 143.136V112.464H510.7V106.272L533.74 100.8H540.22V206.64H551.452V211.392L549.148 213.264C548.188 214.032 546.364 215.04 543.676 216.288C541.084 217.536 538.54 218.16 536.044 218.16C534.988 218.16 533.932 218.016 532.876 217.728C531.916 217.536 531.052 217.248 530.284 216.864C529.516 216.48 528.796 216.048 528.124 215.568C527.452 214.992 526.876 214.464 526.396 213.984C526.012 213.504 525.58 212.976 525.1 212.4C524.716 211.824 524.428 211.344 524.236 210.96C524.044 210.576 523.804 210.144 523.516 209.664L523.228 209.088C517.468 215.136 510.364 218.16 501.916 218.16C493.564 218.16 486.412 215.136 480.46 209.088C474.508 202.944 471.532 194.112 471.532 182.592ZM489.244 182.016C489.244 190.272 491.068 196.56 494.716 200.88C498.46 205.2 502.876 207.36 507.964 207.36C513.34 207.36 518.332 205.584 522.94 202.032V151.2C519.964 150.24 516.892 149.76 513.724 149.76C506.428 149.76 500.524 152.496 496.012 157.968C491.5 163.44 489.244 171.456 489.244 182.016Z" fill="black"/>
<path d="M553.191 214.848V194.256H559.815L565.287 209.376C568.647 209.952 572.391 210.24 576.519 210.24C582.663 210.24 586.983 209.472 589.479 207.936C592.071 206.304 593.367 203.568 593.367 199.728C593.367 196.752 591.975 194.304 589.191 192.384C586.407 190.368 581.607 188.016 574.791 185.328C568.359 182.64 563.367 179.472 559.815 175.824C556.263 172.08 554.487 167.376 554.487 161.712C554.487 155.28 557.175 150.384 562.551 147.024C568.023 143.568 575.127 141.84 583.863 141.84C591.447 141.84 598.311 142.752 604.455 144.576V164.16H598.407L593.655 150.624C590.871 149.856 587.607 149.472 583.863 149.472C578.679 149.472 575.031 150.288 572.919 151.92C570.903 153.456 569.895 155.808 569.895 158.976C569.895 160.8 570.567 162.432 571.911 163.872C573.255 165.312 574.743 166.512 576.375 167.472C578.103 168.336 580.839 169.584 584.583 171.216C593.319 174.864 599.559 178.56 603.303 182.304C607.143 185.952 609.063 190.704 609.063 196.56C609.063 203.568 606.231 208.944 600.567 212.688C594.903 216.336 587.511 218.16 578.391 218.16C569.367 218.16 560.967 217.056 553.191 214.848Z" fill="black"/>
<path d="M645.729 141.84C656.289 141.84 665.025 145.44 671.937 152.64C678.849 159.744 682.305 168.816 682.305 179.856C682.305 190.992 678.849 200.16 671.937 207.36C665.025 214.56 656.289 218.16 645.729 218.16C635.169 218.16 626.385 214.56 619.377 207.36C612.465 200.16 609.009 190.992 609.009 179.856C609.009 168.816 612.465 159.744 619.377 152.64C626.385 145.44 635.169 141.84 645.729 141.84ZM645.729 149.76C639.777 149.76 635.169 152.496 631.905 157.968C628.737 163.44 627.153 170.736 627.153 179.856C627.153 188.976 628.737 196.32 631.905 201.888C635.169 207.456 639.777 210.24 645.729 210.24C651.681 210.24 656.241 207.456 659.409 201.888C662.673 196.224 664.305 188.88 664.305 179.856C664.305 170.736 662.673 163.44 659.409 157.968C656.241 152.496 651.681 149.76 645.729 149.76Z" fill="black"/>
<path d="M679.425 216V209.808L691.665 206.928V155.664H679.425V149.472L702.465 144H708.801V150.48C716.193 144.72 723.777 141.84 731.553 141.84C741.441 141.84 748.449 145.488 752.577 152.784C761.025 145.488 769.617 141.84 778.353 141.84C785.745 141.84 791.553 143.952 795.777 148.176C800.097 152.4 802.257 157.824 802.257 164.448V206.928L814.497 209.808V216H775.761V209.808L785.121 206.928V166.32C785.121 161.808 784.017 158.352 781.809 155.952C779.697 153.552 776.673 152.352 772.737 152.352C767.073 152.352 761.169 154.56 755.025 158.976C755.409 161.28 755.601 163.104 755.601 164.448V206.928L764.961 209.808V216H728.961V209.808L738.321 206.928V166.32C738.321 161.808 737.217 158.352 735.009 155.952C732.897 153.552 729.873 152.352 725.937 152.352C720.561 152.352 714.849 154.368 708.801 158.4V206.928L718.161 209.808V216H679.425Z" fill="black"/>
<path d="M808.24 179.136C808.24 168.576 811.264 159.744 817.312 152.64C823.36 145.44 831.712 141.84 842.368 141.84C847.936 141.84 852.784 142.896 856.912 145.008C861.136 147.024 864.448 149.856 866.848 153.504C869.344 157.152 871.168 161.232 872.32 165.744C873.472 170.256 874.048 175.152 874.048 180.432H825.376C826.048 188.304 828.688 195.024 833.296 200.592C837.904 206.064 844.192 208.8 852.16 208.8C857.248 208.8 862.768 207.696 868.72 205.488L871.168 212.256C862.24 216.192 853.744 218.16 845.68 218.16C834.064 218.16 824.896 214.368 818.176 206.784C811.552 199.2 808.24 189.984 808.24 179.136ZM825.376 173.376L856.192 171.072C855.904 165.312 854.56 160.32 852.16 156.096C849.76 151.872 846.352 149.76 841.936 149.76C837.136 149.76 833.2 152.016 830.128 156.528C827.152 161.04 825.568 166.656 825.376 173.376Z" fill="black"/>
<path d="M751.056 294.848V274.256H757.68L763.152 289.376C766.512 289.952 770.256 290.24 774.384 290.24C780.528 290.24 784.848 289.472 787.344 287.936C789.936 286.304 791.232 283.568 791.232 279.728C791.232 276.752 789.84 274.304 787.056 272.384C784.272 270.368 779.472 268.016 772.656 265.328C766.224 262.64 761.232 259.472 757.68 255.824C754.128 252.08 752.352 247.376 752.352 241.712C752.352 235.28 755.04 230.384 760.416 227.024C765.888 223.568 772.992 221.84 781.728 221.84C789.312 221.84 796.176 222.752 802.32 224.576V244.16H796.272L791.52 230.624C788.736 229.856 785.472 229.472 781.728 229.472C776.544 229.472 772.896 230.288 770.784 231.92C768.768 233.456 767.76 235.808 767.76 238.976C767.76 240.8 768.432 242.432 769.776 243.872C771.12 245.312 772.608 246.512 774.24 247.472C775.968 248.336 778.704 249.584 782.448 251.216C791.184 254.864 797.424 258.56 801.168 262.304C805.008 265.952 806.928 270.704 806.928 276.56C806.928 283.568 804.096 288.944 798.432 292.688C792.768 296.336 785.376 298.16 776.256 298.16C767.232 298.16 758.832 297.056 751.056 294.848Z" fill="black"/>
<path d="M315.04 198.144C315.04 181.536 329.776 173.232 359.248 173.232V168.192C359.248 159.84 358.048 154.56 355.648 152.352C353.344 150.048 349.696 148.896 344.704 148.896L327.856 163.296C325.552 161.856 323.584 159.84 321.952 157.248C320.416 154.56 319.6 151.728 319.504 148.752C323.536 146.544 327.952 144.864 332.752 143.712C337.552 142.464 342.304 141.84 347.008 141.84C366.688 141.84 376.528 150.096 376.528 166.608V206.64H387.76V211.392C385.552 213.504 383.104 215.136 380.416 216.288C377.728 217.536 375.088 218.16 372.496 218.16C366.832 218.16 362.656 215.712 359.968 210.816C353.536 215.712 346.288 218.16 338.224 218.16C331.888 218.16 326.416 216.48 321.808 213.12C317.296 209.76 315.04 204.768 315.04 198.144ZM333.184 197.568C333.184 201.12 334.336 203.76 336.64 205.488C339.04 207.216 342.064 208.08 345.712 208.08C350.992 208.08 355.504 206.448 359.248 203.184V180.576C350.608 180.576 344.08 182.16 339.664 185.328C335.344 188.4 333.184 192.48 333.184 197.568Z" fill="black"/>
<path d="M812.78 278.144C812.78 261.536 827.516 253.232 856.988 253.232V248.192C856.988 239.84 855.788 234.56 853.388 232.352C851.084 230.048 847.436 228.896 842.444 228.896L825.596 243.296C823.292 241.856 821.324 239.84 819.692 237.248C818.156 234.56 817.34 231.728 817.244 228.752C821.276 226.544 825.692 224.864 830.492 223.712C835.292 222.464 840.044 221.84 844.748 221.84C864.428 221.84 874.268 230.096 874.268 246.608V286.64H885.5V291.392C883.292 293.504 880.844 295.136 878.156 296.288C875.468 297.536 872.828 298.16 870.236 298.16C864.572 298.16 860.396 295.712 857.708 290.816C851.276 295.712 844.028 298.16 835.964 298.16C829.628 298.16 824.156 296.48 819.548 293.12C815.036 289.76 812.78 284.768 812.78 278.144ZM830.924 277.568C830.924 281.12 832.076 283.76 834.38 285.488C836.78 287.216 839.804 288.08 843.452 288.08C848.732 288.08 853.244 286.448 856.988 283.184V260.576C848.348 260.576 841.82 262.16 837.404 265.328C833.084 268.4 830.924 272.48 830.924 277.568Z" fill="black"/>
<path d="M812.78 278.144C812.78 261.536 827.516 253.232 856.988 253.232V248.192C856.988 239.84 855.788 234.56 853.388 232.352C851.084 230.048 847.436 228.896 842.444 228.896L825.596 243.296C823.292 241.856 821.324 239.84 819.692 237.248C818.156 234.56 817.34 231.728 817.244 228.752C821.276 226.544 825.692 224.864 830.492 223.712C835.292 222.464 840.044 221.84 844.748 221.84C864.428 221.84 874.268 230.096 874.268 246.608V286.64H885.5V291.392C883.292 293.504 880.844 295.136 878.156 296.288C875.468 297.536 872.828 298.16 870.236 298.16C864.572 298.16 860.396 295.712 857.708 290.816C851.276 295.712 844.028 298.16 835.964 298.16C829.628 298.16 824.156 296.48 819.548 293.12C815.036 289.76 812.78 284.768 812.78 278.144ZM830.924 277.568C830.924 281.12 832.076 283.76 834.38 285.488C836.78 287.216 839.804 288.08 843.452 288.08C848.732 288.08 853.244 286.448 856.988 283.184V260.576C848.348 260.576 841.82 262.16 837.404 265.328C833.084 268.4 830.924 272.48 830.924 277.568Z" fill="black"/>
</g>
<defs>
<clipPath id="clip0">
<rect width="1192" height="369" fill="white"/>
</clipPath>
</defs>
</svg>
